<?xml version="1.0" encoding="utf-8"?>
<!-- Generator: Adobe Illustrator 25.0.0, SVG Export Plug-In . SVG Version: 6.00 Build 0)  -->
<svg version="1.1" id="Layer_1" xmlns="http://www.w3.org/2000/svg" xmlns:xlink="http://www.w3.org/1999/xlink" x="0px" y="0px"
	 viewBox="0 0 80 80" style="enable-background:new 0 0 80 80;" xml:space="preserve">
<style type="text/css">
	.st0{display:none;}
	.st1{display:inline;}
	.st2{fill:none;stroke:#D38BFC;stroke-width:2.807;stroke-miterlimit:5.614;}
	.st3{fill:url(#SVGID_1_);}
	.st4{fill:#FFFFFF;}
	.st5{font-family:'Sugo-UltraLight';}
	.st6{font-size:8.3387px;}
	.st7{fill:url(#SVGID_2_);}
	.st8{fill:url(#SVGID_3_);}
</style>
<g class="st0">
	<g transform="translate(1 1)" class="st1">
		<circle class="st2" cx="7.4" cy="70.6" r="7">
		
			<animate  accumulate="none" additive="replace" attributeName="cy" begin="0s" calcMode="linear" dur="2.2s" fill="remove" repeatCount="indefinite" restart="always" values="50;5;50;50">
			</animate>
		
			<animate  accumulate="none" additive="replace" attributeName="cx" begin="0s" calcMode="linear" dur="2.2s" fill="remove" repeatCount="indefinite" restart="always" values="5;27;49;5">
			</animate>
		</circle>
		<circle class="st2" cx="38.3" cy="7.4" r="7">
		
			<animate  accumulate="none" additive="replace" attributeName="cy" begin="0s" calcMode="linear" dur="2.2s" fill="remove" from="5" repeatCount="indefinite" restart="always" to="5" values="5;50;50;5">
			</animate>
		
			<animate  accumulate="none" additive="replace" attributeName="cx" begin="0s" calcMode="linear" dur="2.2s" fill="remove" from="27" repeatCount="indefinite" restart="always" to="27" values="27;49;5;27">
			</animate>
		</circle>
		<circle class="st2" cx="69.2" cy="70.6" r="7">
		
			<animate  accumulate="none" additive="replace" attributeName="cy" begin="0s" calcMode="linear" dur="2.2s" fill="remove" repeatCount="indefinite" restart="always" values="50;50;5;50">
			</animate>
		
			<animate  accumulate="none" additive="replace" attributeName="cx" begin="0s" calcMode="linear" dur="2.2s" fill="remove" from="49" repeatCount="indefinite" restart="always" to="49" values="49;5;27;49">
			</animate>
		</circle>
	</g>
</g>
<g>
	<radialGradient id="SVGID_1_" cx="8.4211" cy="71.5181" r="8.4819" gradientUnits="userSpaceOnUse">
		<stop  offset="0.4422" style="stop-color:#404041"/>
		<stop  offset="0.9518" style="stop-color:#000000"/>
		<stop  offset="1" style="stop-color:#000000"/>
	</radialGradient>
	<circle class="st3" cx="8.4" cy="71.5" r="8.5"/>
	
		<image style="overflow:visible;" width="404" height="898" xlink:href="5D17C8DE.png"  transform="matrix(1.177659e-02 0 0 1.177659e-02 7.9567 66.3931)">
	</image>
	
		<image style="overflow:visible;" width="502" height="898" xlink:href="5D17C8D9.png"  transform="matrix(1.177659e-02 0 0 1.177659e-02 4.686 66.3931)">
	</image>
	<text transform="matrix(1 0 0 1 2.4593 73.453)" class="st4 st5 st6">{</text>
	<text transform="matrix(1 0 0 1 12.1683 73.4989)" class="st4 st5 st6">}</text>
</g>
<g>
	<radialGradient id="SVGID_2_" cx="70.1754" cy="71.5181" r="8.4819" gradientUnits="userSpaceOnUse">
		<stop  offset="0.4422" style="stop-color:#404041"/>
		<stop  offset="0.9518" style="stop-color:#000000"/>
		<stop  offset="1" style="stop-color:#000000"/>
	</radialGradient>
	<circle class="st7" cx="70.2" cy="71.5" r="8.5"/>
	
		<image style="overflow:visible;" width="404" height="898" xlink:href="5D17C8D8.png"  transform="matrix(1.177659e-02 0 0 1.177659e-02 69.711 66.3931)">
	</image>
	
		<image style="overflow:visible;" width="502" height="898" xlink:href="5D17C8D7.png"  transform="matrix(1.177659e-02 0 0 1.177659e-02 66.4404 66.3931)">
	</image>
	<text transform="matrix(1 0 0 1 64.2137 73.453)" class="st4 st5 st6">{</text>
	<text transform="matrix(1 0 0 1 73.9227 73.4989)" class="st4 st5 st6">}</text>
</g>
<g>
	<radialGradient id="SVGID_3_" cx="39.2982" cy="8.421" r="8.4819" gradientUnits="userSpaceOnUse">
		<stop  offset="0.4422" style="stop-color:#404041"/>
		<stop  offset="0.9518" style="stop-color:#000000"/>
		<stop  offset="1" style="stop-color:#000000"/>
	</radialGradient>
	<circle class="st8" cx="39.3" cy="8.4" r="8.5"/>
	
		<image style="overflow:visible;" width="404" height="898" xlink:href="5D17C8E6.png"  transform="matrix(1.177659e-02 0 0 1.177659e-02 38.8339 3.2961)">
	</image>
	
		<image style="overflow:visible;" width="502" height="898" xlink:href="5D17C8E9.png"  transform="matrix(1.177659e-02 0 0 1.177659e-02 35.5632 3.2961)">
	</image>
	<text transform="matrix(1 0 0 1 33.3365 10.356)" class="st4 st5 st6">{</text>
	<text transform="matrix(1 0 0 1 43.0455 10.4019)" class="st4 st5 st6">}</text>
</g>
</svg>
